<svg width="96" height="96" viewBox="0 0 96 96" fill="none" xmlns="http://www.w3.org/2000/svg">
<path d="M16.6796 61.2002L34.7996 79.3202C42.2396 86.7602 54.3196 86.7602 61.7996 79.3202L79.3596 61.7602C86.7996 54.3202 86.7996 42.2402 79.3596 34.7602L61.1996 16.6802C57.3996 12.8802 52.1596 10.8402 46.7996 11.1202L26.7996 12.0802C18.7996 12.4402 12.4396 18.8002 12.0396 26.7602L11.0796 46.7602C10.8396 52.1602 12.8796 57.4002 16.6796 61.2002Z" stroke="#2DB7AE" stroke-width="5" stroke-linecap="round" stroke-linejoin="round"/>
<path d="M37.9996 48.0002C43.5224 48.0002 47.9996 43.5231 47.9996 38.0002C47.9996 32.4774 43.5224 28.0002 37.9996 28.0002C32.4767 28.0002 27.9996 32.4774 27.9996 38.0002C27.9996 43.5231 32.4767 48.0002 37.9996 48.0002Z" stroke="#2DB7AE" stroke-width="5" stroke-linecap="round"/>
</svg>
