<svg width="96" height="96" viewBox="0 0 96 96" fill="none" xmlns="http://www.w3.org/2000/svg">
<path d="M78 50C78 44.48 82.48 40 88 40V36C88 20 84 16 68 16H28C12 16 8 20 8 36V38C13.52 38 18 42.48 18 48C18 53.52 13.52 58 8 58V60C8 76 12 80 28 80H68C84 80 88 76 88 60C82.48 60 78 55.52 78 50Z" stroke="#2DB7AE" stroke-width="5" stroke-linecap="round" stroke-linejoin="round"/>
<path d="M36 59L60 35" stroke="#2DB7AE" stroke-width="5" stroke-linecap="round" stroke-linejoin="round"/>
<path d="M59.978 59H60.014" stroke="#2DB7AE" stroke-width="5" stroke-linecap="round" stroke-linejoin="round"/>
<path d="M35.978 37H36.014" stroke="#2DB7AE" stroke-width="5" stroke-linecap="round" stroke-linejoin="round"/>
</svg>
