<svg width="46" height="45" viewBox="0 0 46 45" fill="none" xmlns="http://www.w3.org/2000/svg">
<mask id="mask0_115_245" style="mask-type:alpha" maskUnits="userSpaceOnUse" x="10" y="4" width="34" height="37">
<path d="M42.3452 20.4477C44.1052 21.4161 44.1052 23.9167 42.3452 24.8852L14.1983 40.3738C12.4842 41.317 10.3751 40.093 10.3751 38.155L10.3751 7.17783C10.3751 5.23984 12.4842 4.01584 14.1983 4.95906L42.3452 20.4477Z" fill="#C4C4C4"/>
</mask>
<g mask="url(#mask0_115_245)">
<path d="M11.2555 40.0695L28.8127 22.4137L11.5447 5.04858C10.8558 5.49021 10.3751 6.25268 10.3751 7.17786V38.155C10.3751 38.9444 10.725 39.6152 11.2555 40.0695Z" fill="url(#paint0_linear_115_245)"/>
<path d="M42.3451 20.4476C44.105 21.416 44.105 23.9166 42.3451 24.8851L35.2442 28.7925L28.8126 22.4134L34.9162 16.3596L42.3451 20.4476Z" fill="url(#paint1_linear_115_245)"/>
<path d="M35.2444 28.793L28.8128 22.4138L11.2555 40.0697C12.0276 40.7308 13.1824 40.9332 14.1984 40.3741L35.2444 28.793Z" fill="url(#paint2_linear_115_245)"/>
<path d="M11.5447 5.04853L28.8127 22.4136L34.9163 16.3597L14.1983 4.95906C13.3025 4.46614 12.2988 4.5651 11.5447 5.04853Z" fill="url(#paint3_linear_115_245)"/>
</g>
<defs>
<linearGradient id="paint0_linear_115_245" x1="22.4107" y1="15.556" x2="10.4737" y2="27.5912" gradientUnits="userSpaceOnUse">
<stop stop-color="#00C3FF"/>
<stop offset="1" stop-color="#1BE2FA"/>
</linearGradient>
<linearGradient id="paint1_linear_115_245" x1="28.8126" y1="22.4135" x2="44.6894" y2="22.4135" gradientUnits="userSpaceOnUse">
<stop stop-color="#FFCE00"/>
<stop offset="1" stop-color="#FFEA00"/>
</linearGradient>
<linearGradient id="paint2_linear_115_245" x1="10.8873" y1="42.225" x2="32.0067" y2="25.2932" gradientUnits="userSpaceOnUse">
<stop stop-color="#DE2453"/>
<stop offset="1" stop-color="#FE3944"/>
</linearGradient>
<linearGradient id="paint3_linear_115_245" x1="11.9116" y1="3.11038" x2="32.0102" y2="19.5267" gradientUnits="userSpaceOnUse">
<stop stop-color="#11D574"/>
<stop offset="1" stop-color="#01F176"/>
</linearGradient>
</defs>
</svg>
