<svg width="36" height="36" viewBox="0 0 36 36" fill="none" xmlns="http://www.w3.org/2000/svg">
<path d="M18.0005 4.90918C14.4454 4.90918 13.9992 4.92473 12.6029 4.98827C11.2093 5.05209 10.258 5.27273 9.42571 5.59645C8.56473 5.93082 7.83439 6.37809 7.10678 7.106C6.37862 7.83363 5.93136 8.564 5.59591 9.42472C5.27138 10.2574 5.05048 11.2089 4.98775 12.602C4.9253 13.9984 4.90894 14.4448 4.90894 18.0001C4.90894 21.5554 4.92475 22.0002 4.98802 23.3965C5.05211 24.7902 5.27274 25.7414 5.59619 26.5738C5.93081 27.4348 6.37807 28.1652 7.10596 28.8928C7.8333 29.621 8.56364 30.0694 9.42407 30.4037C10.257 30.7275 11.2085 30.9481 12.6018 31.0119C13.9981 31.0755 14.444 31.091 17.9989 31.091C21.5543 31.091 21.9991 31.0755 23.3955 31.0119C24.7891 30.9481 25.7414 30.7275 26.5743 30.4037C27.435 30.0694 28.1642 29.621 28.8916 28.8928C29.6197 28.1652 30.067 27.4348 30.4024 26.5741C30.7242 25.7415 30.9451 24.7899 31.0106 23.3968C31.0733 22.0005 31.0897 21.5554 31.0897 18.0001C31.0897 14.4448 31.0733 13.9986 31.0106 12.6023C30.9451 11.2086 30.7242 10.2574 30.4024 9.425C30.067 8.564 29.6197 7.83363 28.8916 7.106C28.1634 6.37782 27.4353 5.93054 26.5735 5.59645C25.7389 5.27273 24.7872 5.05209 23.3936 4.98827C21.9972 4.92473 21.5527 4.90918 17.9964 4.90918H18.0005ZM16.8262 7.26827C17.1747 7.26772 17.5636 7.26827 18.0005 7.26827C21.4957 7.26827 21.91 7.28082 23.2902 7.34354C24.5665 7.40191 25.2592 7.61518 25.7207 7.79436C26.3316 8.03163 26.7671 8.31527 27.225 8.77345C27.6832 9.23163 27.9668 9.668 28.2046 10.2789C28.3838 10.7398 28.5973 11.4325 28.6554 12.7089C28.7181 14.0889 28.7318 14.5035 28.7318 17.9971C28.7318 21.4907 28.7181 21.9053 28.6554 23.2853C28.597 24.5616 28.3838 25.2544 28.2046 25.7153C27.9673 26.3262 27.6832 26.7612 27.225 27.2191C26.7668 27.6773 26.3318 27.9609 25.7207 28.1982C25.2598 28.3782 24.5665 28.5909 23.2902 28.6493C21.9102 28.712 21.4957 28.7256 18.0005 28.7256C14.5051 28.7256 14.0908 28.712 12.7109 28.6493C11.4346 28.5904 10.7418 28.3771 10.2801 28.1979C9.66925 27.9606 9.2329 27.677 8.77473 27.2188C8.31656 26.7606 8.03293 26.3254 7.79512 25.7142C7.61594 25.2533 7.40241 24.5605 7.34432 23.2842C7.28159 21.9042 7.26905 21.4896 7.26905 17.9938C7.26905 14.498 7.28159 14.0856 7.34432 12.7056C7.40268 11.4293 7.61594 10.7365 7.79512 10.2751C8.03239 9.66418 8.31656 9.22782 8.77473 8.76963C9.2329 8.31145 9.66925 8.02782 10.2801 7.79C10.7416 7.61 11.4346 7.39727 12.7109 7.33863C13.9185 7.28409 14.3865 7.26773 16.8262 7.265V7.26827ZM24.9881 9.44191C24.1209 9.44191 23.4173 10.1447 23.4173 11.0123C23.4173 11.8795 24.1209 12.5832 24.9881 12.5832C25.8554 12.5832 26.559 11.8795 26.559 11.0123C26.559 10.145 25.8554 9.44136 24.9881 9.44136V9.44191ZM18.0005 11.2774C14.288 11.2774 11.278 14.2875 11.278 18.0001C11.278 21.7127 14.288 24.7214 18.0005 24.7214C21.7131 24.7214 24.722 21.7127 24.722 18.0001C24.722 14.2875 21.7128 11.2774 18.0003 11.2774H18.0005ZM18.0005 13.6365C20.4103 13.6365 22.364 15.59 22.364 18.0001C22.364 20.4099 20.4103 22.3637 18.0005 22.3637C15.5905 22.3637 13.637 20.4099 13.637 18.0001C13.637 15.59 15.5905 13.6365 18.0005 13.6365V13.6365Z" fill="#39667A"/>
</svg>
