<svg width="56" height="56" viewBox="0 0 56 56" fill="none" xmlns="http://www.w3.org/2000/svg">
<path d="M51.3334 18.6667V30.3334C51.3334 39.6667 46.6667 44.3334 37.3334 44.3334H36.1667C35.4434 44.3334 34.7434 44.6834 34.3 45.2667L30.8 49.9334C29.26 51.9867 26.74 51.9867 25.2 49.9334L21.7 45.2667C21.3267 44.7534 20.4634 44.3334 19.8334 44.3334H18.6667C9.33335 44.3334 4.66669 42.0001 4.66669 30.3334V18.6667C4.66669 9.33341 9.33335 4.66675 18.6667 4.66675H28" stroke="#A7C1CC" stroke-width="3" stroke-miterlimit="10" stroke-linecap="round" stroke-linejoin="round"/>
<path d="M35.4666 10.78C34.6966 8.47002 35.6066 5.62336 38.1266 4.83002C39.4333 4.43336 41.0666 4.76002 42 5.99669C42.8866 4.71336 44.5666 4.43336 45.8733 4.83002C48.3933 5.60002 49.3033 8.47002 48.5333 10.78C47.3433 14.4434 43.1666 16.3334 42 16.3334C40.8333 16.3334 36.7033 14.4667 35.4666 10.78Z" stroke="#A7C1CC" stroke-width="3" stroke-linecap="round" stroke-linejoin="round"/>
<path d="M37.3251 25.6667H37.346" stroke="#A7C1CC" stroke-width="3" stroke-linecap="round" stroke-linejoin="round"/>
<path d="M27.9895 25.6667H28.0104" stroke="#A7C1CC" stroke-width="3" stroke-linecap="round" stroke-linejoin="round"/>
<path d="M18.6539 25.6667H18.6748" stroke="#A7C1CC" stroke-width="3" stroke-linecap="round" stroke-linejoin="round"/>
</svg>
