<svg width="36" height="36" viewBox="0 0 36 36" fill="none" xmlns="http://www.w3.org/2000/svg">
<path fill-rule="evenodd" clip-rule="evenodd" d="M27.9922 13.6142C28.0009 13.8391 28.0038 14.0638 28.0038 14.2887C28.0038 21.1058 23.2083 28.9758 14.439 28.9758C11.7452 28.9758 9.24037 28.1172 7.12991 26.6557C7.50297 26.6966 7.88185 26.7273 8.26654 26.7273C10.5001 26.7273 12.5572 25.8993 14.189 24.5093C12.1028 24.4786 10.3411 22.9762 9.73359 20.9321C10.0253 20.9934 10.3256 21.0241 10.6328 21.0241C11.0659 21.0241 11.4865 20.9629 11.8896 20.8402C9.70644 20.3701 8.06208 18.2851 8.06208 15.7811C8.06208 15.7505 8.06208 15.7402 8.06208 15.7197C8.70549 16.0979 9.44191 16.3328 10.2239 16.3635C8.94288 15.4334 8.10082 13.8493 8.10082 12.0607C8.10082 11.1204 8.33532 10.2312 8.7481 9.46463C11.0989 12.5921 14.6134 14.6465 18.5756 14.8611C18.4942 14.483 18.4525 14.0844 18.4525 13.6858C18.4525 10.8343 20.5872 8.52441 23.2209 8.52441C24.592 8.52441 25.8304 9.14796 26.6995 10.1496C27.7877 9.92472 28.8071 9.49549 29.7296 8.90269C29.372 10.1087 28.6172 11.1203 27.6307 11.754C28.5959 11.6314 29.5164 11.3556 30.3701 10.9468C29.7296 11.9791 28.9234 12.8886 27.9922 13.6142Z" fill="#39667A"/>
</svg>
