<svg width="34" height="40" viewBox="0 0 34 40" fill="none" xmlns="http://www.w3.org/2000/svg">
<path d="M32.9251 14.239C32.7396 14.3472 28.325 16.6302 28.325 21.6922C28.5331 27.4652 33.896 29.4897 33.988 29.4897C33.896 29.5979 33.1783 32.2476 31.0525 35.0252C29.3654 37.4179 27.4928 39.8302 24.6492 39.8302C21.9444 39.8302 20.9735 38.2355 17.8525 38.2355C14.5009 38.2355 13.5525 39.8302 10.9864 39.8302C8.14285 39.8302 6.13157 37.2886 4.35248 34.9185C2.04116 31.8163 0.0766163 26.9482 0.00726177 22.2739C-0.0394772 19.797 0.470128 17.3622 1.76374 15.2941C3.58958 12.4069 6.84924 10.447 10.4089 10.3824C13.1364 10.2967 15.5638 12.1273 17.2283 12.1273C18.8235 12.1273 21.8057 10.3824 25.18 10.3824C26.6364 10.3838 30.5203 10.7926 32.9251 14.239ZM16.9976 9.88785C16.5121 7.62588 17.8525 5.36391 19.1009 3.92102C20.696 2.17607 23.2154 0.991699 25.388 0.991699C25.5267 3.25367 24.6477 5.47209 23.0767 7.08778C21.667 8.83273 19.2396 10.1464 16.9976 9.88785Z" fill="black"/>
</svg>
